<?xml version="1.0" encoding="utf-8"?>
<svg width="512px" height="512px" viewBox="0 0 512 512" version="1.1" xmlns:xlink="http://www.w3.org/1999/xlink" xmlns="http://www.w3.org/2000/svg">
  <g id="clock-solid">
    <path d="M256 512C114.6 512 0 397.4 0 256C0 114.6 114.6 0 256 0C397.4 0 512 114.6 512 256C512 397.4 397.4 512 256 512L256 512ZM232 256C232 264 236 271.5 242.7 275.1L338.7 339.1C349.7 347.3 364.6 344.3 371.1 333.3C379.3 322.3 376.3 307.4 365.3 300L280 243.2L280 120C280 106.7 269.3 96 255.1 96C242.7 96 231.1 106.7 231.1 120L232 256L232 256Z" id="Shape" fill="#333333" fill-rule="evenodd" stroke="none" />
  </g>
</svg>