<?xml version="1.0" encoding="utf-8"?>
<svg width="448px" height="512px" viewBox="0 0 448 512" version="1.1" xmlns:xlink="http://www.w3.org/1999/xlink" xmlns="http://www.w3.org/2000/svg">
  <defs>
    <path d="M0 0L448 0L448 512L0 512L0 0Z" id="path_1" />
    <clipPath id="mask_1">
      <use xlink:href="#path_1" />
    </clipPath>
  </defs>
  <g id="utensils-solid">
    <path d="M0 0L448 0L448 512L0 512L0 0Z" id="Background" fill="none" fill-rule="evenodd" stroke="none" />
    <g clip-path="url(#mask_1)">
      <path d="M221.6 148.7C224.7 161.3 224.8 174.5 222.1 187.2C219.3 199.1 213.6 211.9 205.6 222.1C191.1 238.6 173 249.1 151.1 254.1L151.1 472C151.1 482.6 147.8 492.8 140.3 500.3C132.8 507.8 122.6 512 111.1 512C101.4 512 91.22 507.8 83.71 500.3C76.21 492.8 71.1 482.6 71.1 472L71.1 254.1C50.96 250.1 31.96 238.9 18.3 222.4C10.19 212.2 4.529 200.3 1.755 187.5C-1.019 174.7 -0.831496 161.5 2.303 148.8L32.51 12.45C33.36 8.59801 35.61 5.19701 38.82 2.9C42.02 0.602005 45.97 -0.429695 49.89 0.00260486C53.82 0.430205 57.46 2.303 60.1 5.259C62.74 8.214 64.18 12.04 64.16 16L64.16 160L81.53 160L98.62 11.91C99.02 8.63501 100.6 5.62101 103.1 3.43401C105.5 1.248 108.7 0.0401049 111.1 0.0401049C115.3 0.0401049 118.5 1.248 120.9 3.43401C123.4 5.62101 124.1 8.63501 125.4 11.91L142.5 160L159.1 160L159.1 16C159.1 12.07 161.4 8.268 163.1 5.31701C166.6 2.366 170.2 0.474005 174.1 0.00260486C178 -0.426195 181.1 0.619005 185.2 2.936C188.4 5.253 190.6 8.677 191.5 12.55L221.6 148.7L221.6 148.7ZM448 472C448 482.6 443.8 492.8 436.3 500.3C428.8 507.8 418.6 512 408 512C397.4 512 387.2 507.8 379.7 500.3C372.2 492.8 368 482.6 368 472L368 352L351.2 352C342.8 352 334.4 350.3 326.6 347.1C318.9 343.8 311.8 339.1 305.8 333.1C299.9 327.1 295.2 320 291.1 312.2C288.8 304.4 287.2 296 287.2 287.6L287.1 173.8C288 136.9 299.1 100.8 319.8 70.28C340.5 39.71 369.8 16.05 404.1 2.339C408.1 0.401005 414.2 -0.320195 419.4 0.239105C424.6 0.798205 429.6 2.62 433.9 5.546C438.2 8.472 441.8 12.41 444.2 17.03C446.7 21.64 447.1 26.78 448 32L448 472L448 472Z" id="Shape" fill="#F2994A" fill-rule="evenodd" stroke="none" />
    </g>
  </g>
</svg>